ply
format ascii 1.0
comment Created by Blender 2.79 (sub 0) - www.blender.org, source file: ''
element vertex 20
property float x
property float y
property float z
property float s
property float t
element face 12
property list uchar uint vertex_indices
end_header
-1.000000 -1.000000 1.000000 0.000000 0.000000
1.000000 -1.000000 -1.000000 -1.000000 -1.000000
1.000000 -1.000000 1.000000 -1.000000 0.000000
1.000000 1.000000 1.000000 0.000000 0.000000
-0.999999 1.000000 -1.000001 1.000000 -1.000000
-1.000000 1.000000 0.999999 1.000000 -0.000000
-1.000000 -1.000000 -1.000000 0.000000 -1.000000
-1.000000 -1.000000 1.000000 1.000000 -1.000000
-0.999999 1.000000 -1.000001 1.000000 0.000000
1.000000 -1.000000 -1.000000 -0.000000 -1.000000
-1.000000 -1.000000 -1.000000 1.000000 -1.000000
1.000000 -1.000000 -1.000000 0.000000 0.000000
1.000000 1.000000 1.000000 1.000000 1.000000
1.000000 -1.000000 1.000000 1.000000 0.000000
1.000000 1.000000 1.000000 -1.000000 1.000000
-1.000000 1.000000 0.999999 0.000000 1.000000
1.000000 1.000000 -1.000000 -0.000000 -1.000000
-0.999999 1.000000 -1.000001 -0.000000 0.000000
1.000000 1.000000 -1.000000 -0.000000 0.000000
1.000000 1.000000 -1.000000 0.000000 1.000000
3 0 1 2
3 3 4 5
3 5 6 7
3 8 9 10
3 11 12 13
3 0 14 15
3 0 6 1
3 3 16 4
3 5 17 6
3 8 18 9
3 11 19 12
3 0 2 14
